<svg xmlns="http://www.w3.org/2000/svg" width="200" height="60" viewBox="0 0 200 60">
    <g fill="none" fill-rule="evenodd">
        <g fill-rule="nonzero">
            <g>
                <path fill="#333" d="M4.275 50.821C1.27 50.232.172 49.39.02 47.558c-.122-1.472.316-2.354 1.459-2.937 1.164-.594 3.745-.891 6.263-.72 1.187.08 2.094.059 2.099-.05.005-.105.09-.613.19-1.127.256-1.327-.063-2.3-.906-2.762-.57-.311-1.222-.373-3.848-.361l-3.162.013v-2.492h.858c.697 0 .857.075.857.404 0 .373.232.411 2.99.487 2.596.071 3.07.14 3.591.52.993.726 1.396 1.811 1.384 3.723-.011 1.612.011 1.69.513 1.816.43.108.525.265.525.878v.747l-4.02-.137c-5.632-.192-7.34.23-7.34 1.813 0 1.758 2.602 2.425 7.287 1.866 1.474-.176 2.752-.321 2.84-.324.088-.002.16.417.16.93v.935l-1.125.136c-1.546.185-5.21.131-6.36-.095zm10.701.043c-.45-.124-.547-.296-.603-1.07-.062-.864-.038-.911.408-.77.26.083 1.159.155 1.996.16 1.832.011 2.713-.379 3.207-1.421.612-1.29.544-1.36-1.427-1.464-3.126-.164-4.84-1.488-5.028-3.883-.262-3.336 2.811-5.308 7.685-4.932 1.688.13 1.693.132 1.693.741 0 .469-.1.612-.429.612-.408 0-.429.143-.429 3v3.001h4.92l.059-3.697.059-3.697 1.018-.066 1.018-.065v.762c0 .419-.097.762-.215.762-.132 0-.214 1.143-.214 3v3.001h4.536l-.454-.735c-1.068-1.727-.75-4.185.726-5.603 2.092-2.013 5.35-1.68 6.99.715.453.66.527 1.013.527 2.5 0 1.483-.073 1.833-.515 2.452l-.514.722 1.639-.083c1.424-.072 1.713-.157 2.201-.645.496-.496.567-.75.6-2.143.046-1.876.657-3.348 1.698-4.09.623-.445.953-.49 4.054-.553l3.376-.068v5.564l.697.588c.383.323 1.007.717 1.386.876.855.358 3.1.38 3.447.032.188-.188.258-1.843.258-6.109v-5.852H62.775v.643c0 .59-.061.643-.734.643h-.734l-.07 5.413c-.09 6.973-.104 7.002-3.56 7.039-1.772.019-2.086-.041-3.242-.62-1.242-.62-1.292-.627-1.64-.242-.628.693-2.092.972-4.62.879-.656-.024-1.254-.217-1.783-.576-.783-.532-.803-.534-1.37-.146-1.235.847-1.984.9-12.651.9H22.058l-.127.59c-.248 1.153-.824 2.226-1.523 2.84-1.188 1.043-3.75 1.56-5.432 1.095zm5.359-9.056v-3.03l-1.233.144c-2.077.242-3.8 1.356-4.035 2.608-.137.725.322 1.993.891 2.466.563.467 1.91.824 3.144.833l1.233.01v-3.03zm17.471 2.722c2.187-.914 2.153-4.7-.05-5.62-3.452-1.442-5.553 3.867-2.199 5.553.907.455 1.291.467 2.249.067zm13.715-.334c.276-.229.325-.718.275-2.765l-.06-2.487-1.9-.062c-2.18-.072-2.767.172-3.262 1.358-.63 1.509-.15 3.53.983 4.124.668.35 3.483.232 3.964-.168zm21.84 5.91c-.064-.169-.085-.53-.046-.801.055-.389.245-.524.885-.627.448-.072.93-.247 1.072-.388.18-.18.289-1.896.364-5.766l.107-5.51h2.787l.067.697c.06.617.006.697-.465.697H77.6l-.071 4.915c-.066 4.56-.103 4.958-.512 5.52-.85 1.163-3.36 2.031-3.655 1.263zm6.562-4.937c0-1.177.006-1.188.643-1.188.4 0 .643.11.643.292 0 .37 1.512.561 4.478.564l2.228.002-.139-1.325c-.303-2.9-1.226-3.662-4.583-3.787l-2.198-.081V36.908h.643c.543 0 .643.083.643.536 0 .295.075.536.166.536.092 0 .97.1 1.952.224 3.659.458 4.63 1.454 5.059 5.188l.141 1.232h1.684v-4.5H92.998v2.25c0 1.857.056 2.25.321 2.25.212 0 .322-.211.322-.62 0-1.102.852-3.431 1.543-4.219 1.272-1.447 3.234-2.045 7.654-2.329l2.231-.144-.143 3.656-.144 3.656h2.965l-.43-1.125c-.533-1.393-.423-2.984.295-4.27.992-1.775 1.996-2.076 6.445-1.932l2.09.068v2.732c0 2.707.006 2.738.59 3.274.82.755 1.792 1.093 3.217 1.122 1.187.024 1.222.008 1.36-.619.078-.353.153-3.078.167-6.055l.025-5.412h3.215v.643c0 .592-.06.643-.75.643h-.75v9.393l.653.55c.752.632 2.076 1.043 3.059.947.92-.09.948-.278.978-6.764l.025-5.412h3.216v.643c0 .592-.06.643-.75.643h-.75l-.002 5.09c-.002 5.481-.144 6.503-.983 7.053-.727.476-3.1.435-4.627-.08-1.157-.391-1.19-.39-1.735.016-1.167.87-4.3.348-5.63-.94l-.652-.633-.363.616c-.573.969-1.553 1.311-3.725 1.3-1.056-.005-2.182-.133-2.54-.287-.519-.224-.726-.225-1.072-.008-.327.207-3.721.302-14.414.404l-13.986.134v-1.189zm23.578-3.555v-3.011l-.697.107c-.383.058-1.301.164-2.04.235-1.595.152-2.79.544-3.69 1.21-.75.553-1.637 2.277-1.846 3.584l-.141.885h8.414v-3.01zm10.651 2.454c.216-.295.278-1.024.233-2.763l-.06-2.361-1.926-.063c-1.195-.039-2.107.034-2.402.192-1.555.832-1.453 4.45.149 5.29.823.433 3.625.227 4.006-.295zM64.49 39.265v-6.859h3.457l-.068.697c-.059.613-.15.705-.763.764l-.697.067v12.19H64.49v-6.859zm-40.083-4.167v-.977h1.954l-.066.911c-.066.907-.07.911-.977.977l-.91.066v-.977zm2.572-.012v-.965H28.908V36.05H26.98v-.964zm9.473-.375c.065-.907.07-.912.977-.977l.91-.066v1.954H36.387l.066-.911zm4.889-4.296c0-.651.071-.725.924-.954.655-.175 1-.41 1.18-.804.173-.38.253-2.192.253-5.692v-5.134h2.787v.643c0 .5-.095.643-.429.643-.413 0-.429.143-.429 4.043 0 4.526-.207 6.085-.913 6.851-.615.669-1.655 1.11-2.616 1.11-.714 0-.757-.042-.757-.706zm-18.22-.461v-.977h1.954l-.066.91c-.066.907-.07.912-.977.978l-.91.066v-.977zm-2.745-.173c.065-.907.07-.912.977-.977l.91-.066v1.954H20.31l.066-.911zm58.475-.28v-.977l.911.065c.907.066.911.07.977.977l.066.911H78.85V29.5zm2.614.065c.065-.906.07-.911.976-.977l.911-.065V30.477H81.4l.066-.91zm32.049.779c-.084-.085-.153-.523-.153-.975v-.822h1.954l-.066.911c-.064.874-.097.914-.824.975-.417.035-.827-.005-.911-.09zM9.234 26.87c-2.463-.88-3.439-2.882-2.5-5.134.858-2.057 2.365-2.767 6.099-2.875l2.25-.066.107 3.045c.074 2.087.195 3.132.386 3.322.192.192 1.173.301 3.162.353l2.883.074V18.26h2.143v.75c0 .412-.096.75-.214.75-.132 0-.215 1.107-.215 2.894v2.893H27.836V18.26h2.144v.75c0 .412-.096.75-.214.75-.135 0-.214 1.358-.214 3.644v3.644l-1.447.023c-5.79.094-11.831-.073-12.833-.354-.976-.274-1.172-.27-1.78.033-1.077.537-2.94.59-4.257.12zm2.864-1.349c.526-.132.993-.301 1.037-.375.044-.074.152-1.186.239-2.472l.157-2.338-1.483.125c-1.753.146-3.145.654-3.564 1.3-.883 1.361-.46 2.927.965 3.574 1.075.488 1.368.509 2.65.186zm35.887.884c0-.81.036-.858.643-.858h.643v-9.86h2.573v.664c0 .482-.117.693-.43.775-.41.107-.428.292-.428 4.267v4.154h1.458c.848 0 1.565-.107 1.714-.257.188-.187.258-1.843.258-6.109V13.33h3.456l-.067.696c-.058.608-.153.705-.742.762l-.676.066-.075 5.41c-.084 6.105-.146 6.36-1.626 6.772-.444.123-2.132.224-3.753.225l-2.948.001v-.857zm11.575-6.118v-6.975l1.661.062 1.661.063.067.696c.066.683.05.697-.803.697h-.871v12.432H59.56v-6.975zm-28.08 5.689v-1.072h.75c.525 0 .751.097.751.322 0 .272.515.321 3.352.321h3.352l-.125-1.063c-.385-3.25-1.639-4.51-4.487-4.51-.532 0-1.268-.06-1.636-.134-.66-.131-.67-.154-.67-1.393 0-1.254.002-1.26.639-1.26.492 0 .668.117.766.506.114.455.313.532 1.969.764 3.885.543 4.789 1.634 4.943 5.965l.094 2.626h-9.697v-1.072zm46.032.743c-.442-.167-1.086-.449-1.43-.627-.554-.286-.712-.287-1.386-.005-.887.37-2.885.414-4.059.088-1.063-.295-2.412-1.524-2.73-2.485-.473-1.436.238-3.604 1.484-4.52.828-.609 2.778-1.125 4.254-1.125.865 0 1.134-.076 1.134-.321 0-.232.238-.322.857-.322h.857v6.6l.758.666c.666.585.912.665 2.036.665h1.279v-7.288h2.358v.75c0 .525-.097.75-.322.75-.27 0-.321.465-.321 2.895v2.893h2.025c2.135 0 3.906-.28 4.497-.712.31-.227.118-.504-1.584-2.28l-1.938-2.022v-2.274h3.291c3.072 0 3.34.033 4.02.49.559.377.788.735.99 1.549.324 1.3.106 2.251-.798 3.5-.354.488-.643.926-.643.973 0 .324 1.662.776 2.853.776 1.295 0 1.435-.047 1.95-.66.472-.56.555-.867.555-2.042 0-1.494.386-2.674 1.136-3.478.921-.986 1.438-1.108 4.726-1.108h3.098l.143 2.733c.078 1.504.18 2.85.225 2.99.045.142.593.551 1.218.91l1.136.651 4 .003 4 .002.266-1.493c.566-3.168-.067-3.65-4.794-3.651h-3.172l.064-1.233.065-1.232.803-.067c.69-.057.804-.004.804.375 0 .416.123.442 2.114.442 3.911 0 5.032.447 5.734 2.284.284.743.326 1.305.208 2.763l-.149 1.83 1.779-.063 1.779-.062.137-.643c.075-.354.148-3.079.162-6.055l.025-5.413h3.216v.75c0 .715-.036.75-.75.75h-.75l-.013 5.091c-.014 5.795-.123 6.391-1.274 6.966-.663.332-1.483.375-7.078.375-5.53 0-6.51-.05-7.777-.401-.797-.221-1.64-.575-1.875-.787-.411-.372-.444-.366-1.022.187-1.195 1.145-4.83 1.277-6.372.231-.695-.472-.797-.488-1.248-.192-1.674 1.097-4.446 1.166-6.548.164-1.031-.492-1.235-.524-1.822-.287-2.133.864-2.598.93-6.984.995-3.393.05-4.577-.003-5.197-.238zm27.02-1.682c.175-.109.255-.994.255-2.825v-2.666h-1.808c-2.329 0-2.824.198-3.341 1.338-.51 1.12-.527 1.824-.077 2.951.492 1.23 1.128 1.524 3.095 1.434.892-.041 1.736-.146 1.876-.232zm-30.683-.36c.33-.126.672-.343.761-.483.219-.344.214-4.38-.006-4.516-.283-.176-3.294.305-3.91.624-1.124.581-1.64 2.232-1.046 3.342.58 1.082 2.7 1.604 4.201 1.033zm17.732-2.204c.441-.545.645-1.033.645-1.544 0-1.211-.363-1.394-3.054-1.536-1.329-.07-2.39-.042-2.39.063 0 .3 3.722 3.958 3.95 3.882.112-.038.495-.427.85-.865zm36.406-2.338l.057-6.913 1.66-.062 1.662-.063v.76c0 .724-.034.759-.75.759h-.75v12.432h-1.936l.057-6.913zM10.689 16.438v-.965H12.618V17.402H10.69v-.964zm2.572 0v-.965H14.976V17.402H13.261v-.964zm14.576.012v-.977h1.954l-.066.911c-.066.907-.07.911-.977.977l-.911.066v-.977zm44.298.166c-.079-.078-.143-.512-.143-.964v-.822H73.921V16.759H73.1c-.451 0-.885-.064-.964-.143zm2.43-.81v-.976H76.517l-.066.911c-.066.907-.07.911-.977.977l-.91.066v-.977zM48.296 14.07c.512-.47.622-.73.576-1.366-.076-1.05.537-1.62 1.692-1.574.461.018.895-.058.964-.17.285-.46.743-.188.743.44s-.025.644-1.059.644c-1.152 0-1.404.188-1.182.886.128.405.256.44 1.193.33 1.046-.124 1.048-.123 1.048.508v.633l-1.768.003c-.973.002-2.01.058-2.304.125-.533.12-.532.117.097-.46z" transform="translate(-1010 -30) translate(1010 30)"/>
                <path fill="#3897C0" d="M199.121 38.105l-13.756-10.72 7.749-15.646-16.962 4.076L168.744 0l-7.388 15.794-16.961-4.055 7.748 15.645-13.777 10.72 17.046 3.694-.19 17.45 13.522-11.017 13.522 11.017-.191-17.45 17.046-3.693zm-25.134 8.873l-4.055-11.06c2.314-.573 3.991-2.802 3.694-5.35-.276-2.228-2.06-4.011-4.288-4.245-2.95-.318-5.434 1.974-5.434 4.861 0 2.293 1.592 4.225 3.714 4.755L163.564 47c-6.75-2.229-11.612-8.682-11.421-16.218.212-8.81 7.409-16.006 16.218-16.218 9.383-.234 17.047 7.302 17.047 16.643 0 7.323-4.798 13.564-11.421 15.772z" transform="translate(-1010 -30) translate(1010 30)"/>
            </g>
        </g>
    </g>
</svg>
