<svg xmlns="http://www.w3.org/2000/svg" width="18" height="18" viewBox="0 0 18 18">
    <g fill="none" fill-rule="evenodd">
        <g fill="#333" fill-rule="nonzero">
            <g>
                <g>
                    <path d="M16.303 12.578c0 2.057-1.669 3.724-3.725 3.724H5.422c-2.056 0-3.724-1.667-3.724-3.724V5.422c0-2.057 1.668-3.724 3.724-3.724h7.156c2.056 0 3.725 1.667 3.725 3.724v7.156zM18 5.422C18 2.427 15.573 0 12.578 0H5.422C2.428 0 0 2.427 0 5.422v7.156C0 15.572 2.428 18 5.422 18h7.156C15.573 18 18 15.572 18 12.578V5.422zm-8.97 6.542c-1.569 0-2.847-1.278-2.847-2.848 0-1.57 1.278-2.847 2.848-2.847 1.57 0 2.847 1.277 2.847 2.847s-1.277 2.848-2.847 2.848zm0-7.293c-2.45 0-4.445 1.994-4.445 4.445 0 2.451 1.995 4.445 4.446 4.445 2.451 0 4.445-1.994 4.445-4.445 0-2.451-1.994-4.445-4.445-4.445zm4.705-1.357c-.584 0-1.058.474-1.058 1.058 0 .585.474 1.058 1.058 1.058.585 0 1.059-.473 1.059-1.058 0-.584-.474-1.058-1.059-1.058z" transform="translate(-567 -1757) translate(524 1695) translate(43 62)"/>
                </g>
            </g>
        </g>
    </g>
</svg>
