<svg xmlns="http://www.w3.org/2000/svg" width="29" height="32" viewBox="0 0 29 32">
    <g fill="none" fill-rule="evenodd">
        <g fill="#424242">
            <g>
                <path d="M37.055 24.413c2.774.787 5.103 2.648 6.475 5.171 1.23 2.26 1.601 4.887 1.068 7.408l-.807-.103c2.222.277 4.442.579 6.658.9 1.286.184 2.572.372 3.849.612.514.096 1.028.198 1.538.316.327-.004.658.042.978.135 1.513.446 2.444 1.83 2.08 3.09-.363 1.262-1.884 1.922-3.397 1.476-.15-.044-.296-.099-.438-.163l-.356-.116c-.74-.25-1.47-.526-2.198-.806-1.242-.48-2.469-1-3.681-1.55-1.268-.572-2.525-1.167-3.783-1.762l-.908-.434c-2.003 5.348-7.82 8.37-13.353 6.799-2.003-.57-3.792-1.703-5.153-3.267-2.418-2.78-3.234-6.62-2.166-10.19.832-2.781 2.732-5.136 5.281-6.545 2.55-1.41 5.54-1.76 8.313-.971zm-11.066 8.33c-.812 2.712-.192 5.628 1.645 7.74 1.034 1.187 2.392 2.048 3.913 2.48 4.387 1.246 9.01-1.31 10.325-5.708 1.316-4.399-1.172-8.975-5.559-10.22-4.386-1.246-9.008 1.31-10.324 5.708z" transform="translate(-144 -709) translate(120 689) rotate(35 40.986 34.9)"/>
            </g>
        </g>
    </g>
</svg>
