<svg xmlns="http://www.w3.org/2000/svg" width="21" height="16" viewBox="0 0 21 16">
    <g fill="none" fill-rule="evenodd">
        <g fill="#333" fill-rule="nonzero">
            <g>
                <g>
                    <g>
                        <path d="M21.008 1.896c-.773.322-1.604.537-2.475.635.89-.5 1.573-1.292 1.895-2.234-.834.462-1.756.798-2.738.98C16.905.491 15.784.001 14.545.001c-2.38 0-4.311 1.809-4.311 4.039 0 .317.038.626.112.921-3.582-.169-6.758-1.777-8.884-4.22-.371.597-.583 1.29-.583 2.031 0 1.4.761 2.638 1.917 3.362-.706-.022-1.37-.203-1.952-.506v.052c0 1.957 1.485 3.589 3.457 3.96-.361.092-.743.14-1.135.14-.278 0-.548-.024-.811-.07.548 1.603 2.14 2.772 4.026 2.805-1.475 1.083-3.333 1.728-5.353 1.728-.348 0-.691-.019-1.028-.056 1.907 1.145 4.173 1.815 6.607 1.815 7.928 0 12.263-6.156 12.263-11.493 0-.176-.005-.349-.013-.523.842-.57 1.573-1.281 2.151-2.09z" transform="translate(-635 -1758) translate(524 1695) translate(43 62) translate(68 1)"/>
                    </g>
                </g>
            </g>
        </g>
    </g>
</svg>
